<?xml version="1.0" encoding="UTF-8"?>
<svg id="katman_2" data-name="katman 2" xmlns="http://www.w3.org/2000/svg" viewBox="0 0 16 10.3">
  <defs>
    <style>
      .cls-1 {
        fill: #fff;
      }
    </style>
  </defs>
  <g id="katman_1" data-name="katman 1">
    <path class="cls-1" d="M16,2.52V7.78c0,.8-.21,1.42-.62,1.86-.41,.44-1,.66-1.77,.66s-1.36-.22-1.78-.66c-.41-.44-.61-1.06-.61-1.86V3.21c0-.61,.69-1.06,1.34-.59,.15,.1,.23,.28,.23,.46V7.88c0,.66,.27,.99,.81,.99s.81-.33,.81-.99V2.42c0-.66-.27-.99-.81-.99h-2.82c-.32,0-.57,.26-.57,.57V7.78c0,.81-.2,1.43-.6,1.87-.4,.43-.98,.65-1.74,.65s-1.34-.21-1.74-.65c-.4-.44-.6-1.06-.6-1.87V2.4c0-.53-.44-.97-.97-.97H2.39c-.52,0-.79,.32-.79,.96,0,.36,.1,.7,.29,1.01,.19,.31,.55,.7,1.06,1.14,.66,.57,1.11,1.09,1.36,1.56,.25,.46,.37,1.01,.37,1.64,0,.82-.2,1.45-.61,1.89-.41,.44-.99,.66-1.76,.66s-1.34-.21-1.73-.65c-.39-.44-.58-1.06-.58-1.87H0c0-.32,.26-.57,.57-.57h.34c.32,0,.57,.26,.57,.57v.12c0,.65,.27,.97,.81,.97,.27,0,.47-.08,.61-.23,.14-.16,.21-.41,.21-.77,0-.42-.1-.79-.29-1.11-.19-.32-.54-.7-1.06-1.15-.65-.57-1.1-1.09-1.36-1.55C.15,3.59,.03,3.07,.03,2.49,.03,1.7,.23,1.08,.63,.65c.14-.15,.31-.28,.5-.38,.34-.18,.75-.27,1.24-.27h2.73c1.11,0,2,.9,2,2V7.9c0,.34,.07,.59,.21,.74,.14,.15,.34,.23,.59,.23s.46-.08,.6-.23c.14-.15,.21-.4,.21-.74V1.43c0-.57,.33-1.06,.82-1.29,.19-.09,.39-.14,.61-.14h3.48c.4,0,.75,.06,1.05,.18,.28,.11,.52,.27,.72,.48,.41,.44,.62,1.06,.62,1.86Z"/>
  </g>
</svg>