<?xml version="1.0" standalone="no"?>
<!DOCTYPE svg PUBLIC "-//W3C//DTD SVG 20010904//EN"
 "http://www.w3.org/TR/2001/REC-SVG-20010904/DTD/svg10.dtd">
<svg version="1.0" xmlns="http://www.w3.org/2000/svg"
 width="600.000000pt" height="600.000000pt" viewBox="0 0 600.000000 600.000000"
 preserveAspectRatio="xMidYMid meet">

<g transform="translate(0.000000,600.000000) scale(0.100000,-0.100000)"
fill="#000000" stroke="none">
<path d="M3180 5034 c-209 -39 -367 -98 -483 -180 -36 -26 -57 -34 -90 -34
-44 0 -67 -13 -67 -39 0 -8 -8 -23 -17 -33 -14 -15 -15 -24 -6 -47 8 -24 6
-34 -14 -67 -13 -21 -35 -75 -50 -119 -22 -67 -26 -99 -27 -200 -1 -118 -1
-120 -28 -143 -30 -26 -38 -75 -18 -113 17 -32 40 -24 40 15 0 44 24 66 47 43
16 -15 16 -22 -1 -87 -34 -128 -7 -224 70 -256 31 -13 33 -16 22 -38 -14 -33
-4 -56 26 -56 14 0 28 -5 32 -11 3 -6 20 -9 36 -7 24 4 32 0 44 -24 8 -16 44
-59 79 -97 l65 -68 -16 -54 c-25 -85 -73 -172 -90 -165 -8 3 -22 9 -31 13 -10
4 -4 -6 13 -23 17 -16 129 -134 249 -261 174 -186 223 -233 243 -233 29 0 72
42 187 185 137 171 211 295 175 295 -10 0 -17 -9 -127 -166 -80 -114 -221
-276 -237 -272 -7 2 -74 68 -148 148 -75 80 -172 178 -217 218 l-81 74 45 51
c60 69 108 161 99 189 -4 12 -52 70 -108 128 -56 58 -108 120 -115 138 -7 17
-18 32 -23 32 -6 0 -8 9 -5 20 6 24 -14 42 -45 40 -47 -4 -59 1 -79 33 -17 27
-20 43 -15 100 6 88 31 141 69 145 32 4 88 -28 111 -63 21 -31 52 -33 60 -2 3
12 6 50 6 85 l0 62 37 0 c43 0 143 -45 143 -65 0 -7 6 -20 13 -27 8 -7 17 -31
21 -53 16 -86 78 -161 151 -185 20 -7 66 -10 101 -8 52 3 70 9 101 34 49 39
80 94 95 167 15 71 48 107 102 109 20 1 41 -3 45 -8 5 -5 11 -39 13 -76 l4
-66 -33 5 c-34 6 -47 -12 -18 -24 25 -9 47 -60 36 -82 -20 -36 -50 -36 -104 2
-26 18 -30 18 -44 4 -14 -14 -14 -18 -2 -33 18 -22 71 -44 107 -44 38 0 79 33
87 70 l7 30 25 -20 c34 -27 97 -43 135 -35 l31 7 -5 -98 c-7 -128 -31 -192
-102 -271 -67 -73 -148 -118 -245 -135 -62 -11 -83 -10 -163 6 -51 11 -100 21
-110 24 -31 8 -21 -35 15 -61 42 -32 66 -39 162 -46 l80 -6 6 -46 c8 -51 24
-89 40 -89 19 0 21 30 4 74 -9 24 -14 49 -10 55 8 15 49 14 110 -3 72 -19 110
-41 133 -78 11 -18 38 -44 59 -58 33 -22 38 -32 41 -68 l3 -43 -40 21 c-23 11
-41 19 -41 16 0 -2 45 -40 99 -85 231 -189 287 -290 346 -631 19 -109 19 -116
1 -101 -8 7 -35 14 -60 16 -52 4 -66 11 -66 29 0 41 -103 66 -117 29 -11 -29
-24 -33 -130 -33 -92 0 -104 2 -126 23 -20 18 -22 25 -13 39 26 42 -41 75 -86
44 -15 -11 -45 -16 -90 -16 l-67 0 -28 -42 c-19 -29 -38 -44 -62 -51 -24 -6
-59 -34 -115 -94 -45 -47 -132 -128 -193 -180 -62 -52 -113 -96 -113 -99 0 -7
112 70 178 123 31 25 95 85 142 133 60 61 95 89 118 94 18 4 40 19 50 33 39
57 50 64 92 57 26 -4 55 -1 89 12 78 28 83 4 9 -42 -23 -14 -38 -31 -35 -38 6
-14 -120 -89 -188 -112 l-40 -14 42 5 c340 40 433 44 452 21 19 -23 -3 -53
-47 -66 -20 -5 -80 -15 -132 -21 -155 -17 -268 -47 -255 -69 3 -4 -6 -12 -20
-17 -16 -5 19 -8 98 -8 126 0 180 -12 192 -43 11 -30 -20 -45 -102 -49 -102
-5 -123 -10 -123 -29 0 -13 12 -14 83 -9 45 4 97 11 115 17 37 11 66 47 57 71
-8 18 -1 23 48 32 l37 7 0 -44 c0 -24 8 -60 19 -80 14 -29 16 -47 11 -85 -9
-59 7 -97 48 -111 28 -10 28 -10 48 -168 14 -121 19 -226 19 -439 1 -336 0
-322 25 -335 19 -10 20 -9 14 16 -7 26 -6 26 27 18 47 -12 87 -10 144 6 38 11
64 29 115 79 57 57 71 77 96 146 27 74 29 90 28 205 -2 89 -9 163 -28 255 -28
145 -56 325 -56 365 0 14 11 41 25 60 31 42 31 57 0 116 -14 27 -25 39 -25 28
1 -10 7 -30 15 -44 21 -37 18 -64 -10 -90 -20 -19 -25 -33 -25 -72 0 -40 -4
-50 -26 -64 -14 -10 -42 -43 -63 -73 -45 -69 -74 -75 -149 -36 -27 14 -72 29
-100 34 -59 9 -102 34 -102 59 0 16 11 17 130 14 136 -5 200 2 200 19 0 8 -26
9 -79 4 -109 -10 -251 3 -251 22 0 25 88 55 189 64 117 10 170 19 177 30 3 5
-26 6 -68 2 -40 -5 -111 -8 -157 -8 -68 0 -86 3 -94 17 -9 13 -7 21 7 37 24
27 144 69 232 82 41 6 72 15 69 19 -2 4 14 15 37 23 23 9 38 20 34 24 -4 4
-38 10 -77 14 -38 3 -73 9 -77 13 -4 4 6 19 21 32 22 19 39 24 80 23 114 -1
162 -47 100 -96 -20 -17 -22 -22 -8 -17 29 10 65 45 65 64 0 30 -31 60 -76 71
-38 10 -44 15 -44 38 -1 42 -39 261 -56 321 -42 145 -131 280 -251 382 l-67
57 -1 61 c-1 58 -3 64 -34 89 -18 14 -54 47 -79 72 -55 55 -79 69 -145 84
l-49 11 50 27 c28 15 71 48 96 72 101 98 144 205 153 380 5 85 10 116 25 137
28 40 46 98 58 190 8 56 18 90 31 104 37 40 19 55 -78 69 -41 5 -52 11 -57 28
-10 37 -7 57 9 57 39 0 48 115 15 180 -19 37 -19 42 -5 70 8 16 18 49 21 74 5
36 3 47 -15 65 -11 11 -21 28 -21 36 0 8 -9 22 -19 32 -10 10 -20 27 -22 37
-3 15 -24 23 -104 42 -55 12 -113 28 -130 34 -145 58 -161 62 -265 65 -58 2
-116 1 -130 -1z m583 -491 c24 -26 26 -36 29 -128 3 -96 2 -100 -19 -103 -12
-2 -41 7 -64 18 -54 28 -132 32 -137 8 -3 -17 9 -25 63 -43 18 -6 17 -8 -12
-20 -17 -7 -41 -27 -54 -44 -19 -26 -29 -31 -67 -31 -34 0 -49 6 -72 28 -26
27 -87 52 -125 52 -17 0 -17 1 -2 18 14 16 15 21 3 37 -11 15 -21 17 -61 12
-26 -4 -64 -16 -84 -26 -23 -13 -72 -24 -134 -30 -61 -6 -115 -18 -141 -30
-41 -20 -116 -29 -116 -13 0 21 49 195 57 203 5 5 57 20 114 33 57 14 117 29
133 35 35 14 41 9 27 -17 -18 -34 -4 -52 43 -52 53 0 184 32 263 64 47 20 79
26 135 25 40 0 96 7 123 14 69 20 68 20 98 -10z m127 -338 c7 -8 9 -23 5 -32
-6 -17 -7 -17 -21 1 -26 36 -12 64 16 31z m-555 -25 c10 -11 15 -23 11 -27 -8
-8 -59 20 -64 36 -6 19 34 12 53 -9z m563 -1922 c-3 -7 -17 -13 -33 -13 -16 0
-30 6 -32 13 -3 8 7 12 32 12 25 0 35 -4 33 -12z m70 -6 c2 -7 -3 -12 -12 -12
-9 0 -16 7 -16 16 0 17 22 14 28 -4z m-91 -238 l30 -6 -23 -24 c-31 -31 -30
-58 4 -83 26 -20 26 -20 5 -21 -13 0 -26 -1 -30 -2 -16 -6 -53 66 -53 103 0
42 6 45 67 33z m397 -291 c3 -21 8 -65 12 -98 4 -33 15 -98 26 -145 28 -127
35 -320 14 -395 -35 -123 -120 -213 -221 -236 -47 -10 -57 -9 -91 7 l-39 19
-6 250 c-6 229 -32 489 -56 551 -5 14 0 15 38 9 24 -4 70 -21 102 -37 41 -22
66 -29 86 -25 27 6 29 3 36 -31 8 -46 64 -182 82 -202 10 -11 16 -11 25 -2 8
8 0 34 -34 109 -63 136 -64 147 -28 211 17 28 34 52 39 52 5 0 12 -17 15 -37z"/>
<path d="M2550 4011 c0 -6 5 -13 10 -16 8 -5 7 -11 -1 -21 -16 -19 7 -46 35
-42 12 1 34 -6 49 -16 25 -17 30 -18 44 -4 22 23 9 50 -39 81 -41 26 -98 37
-98 18z"/>
<path d="M3364 3716 c-16 -40 32 -87 101 -100 50 -10 117 23 138 67 22 44 6
55 -35 24 -61 -47 -102 -44 -156 10 -18 17 -41 17 -48 -1z"/>
<path d="M2514 3416 c-18 -8 -45 -34 -62 -59 l-31 -44 -80 -6 c-93 -6 -172
-42 -207 -94 -28 -41 -39 -115 -23 -145 11 -20 8 -25 -22 -47 -70 -51 -169
-162 -225 -253 -71 -115 -191 -361 -238 -489 -147 -399 -195 -868 -120 -1167
31 -122 107 -262 144 -262 6 0 23 -9 39 -21 46 -34 123 -36 211 -4 254 92 809
433 1071 656 30 27 64 47 75 47 51 -4 93 59 62 90 -10 10 0 11 47 5 33 -4 96
-8 140 -8 75 0 85 3 139 35 32 19 78 58 103 85 52 59 55 61 82 86 13 11 20 30
20 47 -2 23 -2 24 -6 4 -6 -33 -41 -51 -112 -58 -65 -7 -71 -20 -11 -26 l35
-3 -50 -48 c-27 -26 -74 -59 -103 -73 -54 -25 -58 -26 -198 -19 l-144 7 0 -22
c0 -23 0 -23 -21 -4 -34 31 -57 85 -77 187 -11 55 -27 103 -36 113 -16 16 -38
9 -368 -125 -193 -77 -354 -139 -356 -136 -3 2 10 68 27 146 18 77 30 143 28
145 -3 3 -29 -68 -58 -157 l-54 -161 -172 -74 c-188 -80 -218 -96 -235 -128
-9 -17 -7 -17 20 6 17 14 66 38 109 53 153 55 572 216 815 313 l246 99 -5 -87
c-7 -101 10 -166 58 -226 l29 -37 -88 -68 c-303 -239 -548 -394 -883 -560
-172 -86 -243 -106 -306 -88 -50 14 -59 25 -124 154 -59 119 -81 239 -81 445
0 625 313 1378 656 1580 32 19 134 65 225 102 94 38 155 67 140 68 -41 0 -173
-37 -267 -75 -47 -19 -90 -35 -94 -35 -17 0 -8 78 12 102 26 33 109 68 179 75
71 7 86 15 116 63 47 75 115 85 243 38 29 -11 55 -18 57 -16 3 2 -27 21 -65
42 -81 43 -156 55 -206 32z"/>
<path d="M3649 3061 c-47 -47 -140 -138 -206 -201 -76 -73 -129 -132 -143
-160 -22 -45 -21 -44 45 27 36 40 116 114 178 164 201 165 288 262 230 258
-10 -1 -57 -40 -104 -88z"/>
<path d="M2626 3038 c23 -43 184 -235 253 -300 113 -107 242 -177 240 -132 0
13 -22 29 -72 53 -64 30 -92 55 -251 215 -98 100 -174 174 -170 164z"/>
<path d="M2193 2800 c3 -20 29 -115 57 -213 38 -126 57 -177 68 -177 12 0 13
9 8 43 -8 51 -98 313 -121 353 l-16 29 4 -35z"/>
<path d="M2080 2555 c0 -6 11 -49 24 -95 28 -98 56 -238 56 -284 0 -41 19
-106 30 -106 34 0 11 167 -45 338 -33 99 -64 168 -65 147z"/>
</g>
</svg>
