<?xml version="1.0" standalone="no"?>
<!DOCTYPE svg PUBLIC "-//W3C//DTD SVG 20010904//EN"
 "http://www.w3.org/TR/2001/REC-SVG-20010904/DTD/svg10.dtd">
<svg version="1.0" xmlns="http://www.w3.org/2000/svg"
 width="600.000000pt" height="600.000000pt" viewBox="0 0 600.000000 600.000000"
 preserveAspectRatio="xMidYMid meet">

<g transform="translate(0.000000,600.000000) scale(0.100000,-0.100000)"
fill="#000000" stroke="none">
<path d="M2605 5034 c-37 -10 -99 -32 -155 -54 -30 -12 -100 -32 -155 -45 -80
-18 -101 -26 -104 -41 -2 -10 -12 -27 -22 -37 -10 -10 -19 -24 -19 -32 0 -8
-10 -25 -21 -36 -18 -18 -20 -29 -15 -65 3 -25 13 -58 21 -74 14 -28 14 -33
-5 -70 -33 -65 -24 -180 15 -180 16 0 19 -20 9 -57 -5 -17 -16 -23 -57 -28
-97 -14 -115 -29 -78 -69 13 -14 23 -48 31 -104 12 -92 30 -150 58 -190 15
-21 20 -52 25 -137 6 -125 31 -215 77 -288 58 -92 157 -170 251 -199 41 -12
54 -38 19 -38 -11 0 -20 -7 -20 -15 0 -8 -6 -15 -13 -15 -27 0 -88 -52 -93
-80 -5 -24 -15 -31 -58 -45 -82 -27 -265 -126 -316 -172 -53 -48 -93 -118
-141 -252 -21 -57 -42 -99 -55 -108 -18 -12 -41 -11 -165 6 -281 39 -386 51
-584 66 -217 16 -371 19 -378 8 -4 -8 103 -680 157 -987 29 -164 52 -219 103
-249 33 -19 68 -24 498 -72 127 -15 246 -29 265 -32 l35 -5 1 -152 c1 -180 9
-202 92 -277 67 -59 127 -90 189 -97 44 -5 45 -5 39 -38 -5 -26 -2 -35 16 -48
29 -21 187 -21 421 -1 241 20 745 35 1185 35 l372 0 0 51 0 51 43 -8 c62 -11
160 -6 202 12 50 21 120 95 156 165 47 94 59 164 59 352 0 157 1 167 19 167
10 0 29 8 42 19 l23 18 -18 94 c-40 213 -142 590 -222 821 -62 180 -124 296
-198 376 -108 115 -192 160 -593 316 -152 59 -171 69 -162 84 13 21 -26 96
-80 152 -28 29 -47 39 -84 44 l-48 7 60 65 c34 35 67 77 75 93 12 23 20 27 44
23 16 -2 33 1 36 7 4 6 18 11 32 11 30 0 40 23 26 56 -11 22 -9 25 22 38 77
32 104 128 70 256 -17 65 -17 72 -1 87 23 23 47 1 47 -43 0 -39 23 -47 40 -15
20 38 12 87 -17 113 -28 23 -28 25 -29 143 -1 101 -5 133 -27 200 -15 44 -37
98 -50 119 -20 33 -22 43 -14 67 9 23 8 32 -6 47 -9 10 -17 25 -17 33 0 26
-23 39 -67 39 -33 0 -54 8 -90 34 -146 104 -365 174 -563 181 -63 2 -124 2
-135 -1z m-278 -480 c32 -8 91 -15 131 -15 56 1 88 -5 135 -25 79 -32 210 -64
263 -64 47 0 61 18 43 52 -14 26 -8 31 27 17 16 -6 76 -21 133 -35 57 -13 109
-28 114 -33 8 -8 57 -182 57 -203 0 -16 -75 -7 -116 13 -26 12 -80 24 -141 30
-62 6 -111 17 -134 30 -20 10 -58 22 -84 26 -40 5 -50 3 -61 -12 -12 -16 -11
-21 3 -37 15 -17 15 -18 -2 -18 -38 0 -99 -25 -125 -52 -23 -22 -38 -28 -72
-28 -38 0 -48 5 -67 31 -13 17 -37 37 -54 44 -29 12 -30 14 -12 20 54 18 66
26 63 43 -5 24 -83 20 -137 -8 -23 -11 -52 -20 -64 -18 -21 3 -22 7 -19 103 3
92 5 102 29 128 15 15 28 27 29 27 2 0 29 -7 61 -16z m-187 -347 c0 -7 -6 -22
-14 -33 -14 -18 -15 -18 -21 -1 -7 17 10 47 26 47 5 0 9 -6 9 -13z m578 -18
c-5 -16 -56 -44 -64 -36 -11 11 27 47 48 47 11 0 18 -5 16 -11z m522 -61 c0
-35 3 -73 6 -85 8 -31 39 -29 60 2 23 35 79 67 111 63 38 -4 63 -57 69 -145 5
-57 2 -73 -15 -100 -20 -32 -32 -37 -79 -33 -31 2 -51 -16 -45 -40 3 -11 1
-20 -5 -20 -5 0 -16 -15 -23 -32 -7 -18 -56 -78 -109 -133 -52 -55 -106 -115
-119 -134 l-23 -33 32 -46 32 -46 -43 -38 c-24 -21 -94 -72 -156 -113 -61 -41
-124 -90 -139 -110 -28 -38 -28 -32 -8 -190 6 -49 5 -51 -35 -90 -38 -36 -41
-37 -41 -16 0 34 -17 60 -85 131 -53 55 -66 77 -88 145 -22 64 -25 87 -18 115
5 19 12 56 16 83 l6 47 67 0 c88 1 149 15 189 46 36 27 46 70 15 62 -10 -3
-59 -13 -110 -24 -80 -16 -101 -17 -163 -6 -97 17 -178 62 -245 135 -71 79
-95 143 -102 271 l-5 98 31 -7 c38 -8 101 8 135 35 l25 20 7 -30 c8 -37 49
-70 87 -70 36 0 89 22 107 44 12 15 12 19 -2 33 -14 14 -18 14 -44 -4 -54 -38
-84 -38 -104 -2 -11 22 11 73 36 82 29 12 16 30 -18 24 l-33 -5 4 66 c2 37 8
71 13 76 4 5 25 9 45 8 54 -2 87 -38 102 -109 15 -73 46 -128 95 -167 31 -25
49 -31 101 -34 35 -2 81 1 101 8 73 24 135 99 151 185 4 22 13 46 21 53 7 7
13 20 13 28 0 20 89 61 138 63 l42 1 0 -62z m-40 -713 c-36 -37 -44 -36 -54 8
-6 27 -6 27 41 27 l47 0 -34 -35z m117 -62 l35 -64 -46 -57 c-90 -111 -135
-178 -181 -272 -26 -52 -56 -110 -67 -127 l-20 -33 -43 58 c-24 31 -71 88
-106 126 l-63 69 39 34 c22 19 76 60 120 91 95 67 183 149 232 215 42 57 47
55 100 -40z m-837 -123 c0 -5 -5 -30 -12 -54 -11 -43 -10 -48 31 -133 24 -48
66 -117 95 -153 29 -36 62 -82 74 -103 l22 -38 -24 -37 c-30 -46 -49 -108 -44
-146 5 -46 25 -42 32 6 11 68 44 125 112 192 l64 63 0 93 0 93 64 -81 c35 -45
79 -104 97 -132 18 -27 36 -50 41 -50 13 0 51 44 70 82 9 18 39 79 67 135 47
97 101 183 153 246 l23 28 57 -34 c31 -19 132 -64 225 -101 303 -122 370 -160
466 -267 114 -126 198 -349 348 -934 32 -126 59 -233 59 -237 0 -5 -10 -8 -22
-8 -13 0 -88 -11 -168 -24 -154 -26 -299 -64 -366 -97 -22 -10 -43 -19 -46
-19 -3 0 -8 42 -12 93 -4 50 -14 150 -22 221 -17 143 -17 157 15 236 l21 55
-35 -39 c-28 -32 -35 -36 -35 -20 0 11 -6 29 -14 39 -13 19 -15 17 -22 -19
-10 -55 3 -352 20 -461 8 -49 13 -91 11 -93 -1 -2 -133 33 -291 76 -159 44
-307 85 -330 91 -22 6 -52 20 -65 32 -18 16 -34 20 -64 17 -47 -5 -161 26
-390 107 -88 31 -179 57 -201 58 -38 2 -48 -4 -118 -67 -42 -38 -79 -66 -82
-63 -3 2 -23 75 -44 160 -49 192 -133 466 -161 529 -25 53 -51 68 -159 89 -36
6 -67 13 -69 15 -4 4 76 208 105 265 32 63 116 138 216 189 45 24 100 54 120
67 49 30 58 29 58 -8 0 -17 9 -41 20 -53 86 -94 98 -116 102 -195 2 -25 8 -46
15 -48 6 -2 30 12 53 33 l41 37 31 -29 31 -29 -19 33 c-34 59 -37 60 -105 24
-4 -1 -9 15 -13 38 -4 24 -19 55 -39 78 -64 74 -77 99 -77 148 0 41 5 51 36
80 36 34 54 42 54 24z m-1410 -595 c107 -9 267 -24 355 -35 190 -23 543 -85
579 -101 36 -17 48 -49 130 -337 69 -241 97 -351 179 -697 l33 -141 -81 13
c-44 7 -355 44 -692 82 -455 52 -618 74 -637 86 -39 26 -54 79 -106 388 -27
161 -67 394 -89 519 -23 125 -41 230 -41 233 0 10 174 5 370 -10z m1605 -809
c88 -30 174 -61 192 -70 18 -10 79 -29 135 -42 57 -14 109 -30 116 -36 37 -31
-14 -253 -62 -271 -9 -3 -57 14 -108 38 -60 28 -102 42 -115 39 -13 -4 -53 8
-102 30 -90 41 -96 41 -204 -6 -76 -32 -97 -31 -97 6 0 44 75 84 194 101 26 4
46 11 46 15 0 36 -176 -8 -232 -57 -9 -9 -37 -17 -62 -19 -51 -4 -45 -13 -71
110 -9 43 -13 82 -8 86 4 5 42 36 83 69 55 45 82 61 105 61 17 0 103 -24 190
-54z m1051 -301 c378 -97 427 -112 478 -148 16 -12 26 -16 22 -9 -13 21 -93
62 -177 91 l-84 28 100 32 c55 17 161 45 235 61 74 17 143 34 154 37 18 5 18
-3 13 -198 -5 -218 -15 -277 -62 -370 -76 -149 -189 -197 -360 -154 -73 19
-678 321 -902 451 l-42 24 24 35 c27 40 55 152 55 219 l0 44 88 -24 c48 -14
254 -67 458 -119z m798 99 c22 -8 20 -31 -3 -44 -30 -16 -41 -12 -41 13 0 35
12 43 44 31z m-2121 -103 c-6 -25 12 -58 37 -66 12 -4 51 8 100 29 45 20 90
36 101 36 11 0 41 -11 67 -24 26 -13 62 -27 80 -31 30 -6 22 -10 -95 -52 -161
-56 -257 -83 -300 -83 -18 0 -33 1 -34 3 0 1 -6 43 -13 94 -12 89 -11 92 8
102 35 16 55 13 49 -8z m520 -102 c23 -12 50 -30 60 -40 10 -10 30 -22 45 -25
15 -3 208 -101 430 -216 221 -116 431 -222 467 -237 l65 -26 0 -47 0 -47 -92
5 c-128 8 -1260 -24 -1476 -41 -184 -15 -310 -19 -334 -10 -12 5 -12 16 1 73
11 49 15 126 16 280 l0 213 25 -5 c14 -3 88 -9 166 -12 164 -8 185 -3 424 95
80 33 149 60 153 60 4 1 27 -9 50 -20z m-1018 -99 c66 -6 131 -13 144 -16 l24
-5 -5 -199 c-5 -214 -9 -230 -57 -230 -38 0 -123 52 -169 105 -36 41 -41 53
-52 128 -10 72 -29 160 -47 221 -4 16 -1 18 18 13 13 -3 78 -11 144 -17z"/>
<path d="M3352 3993 c-48 -31 -61 -58 -39 -81 14 -14 19 -13 44 4 15 10 37 17
49 16 28 -4 51 23 35 42 -8 10 -9 16 -1 21 19 12 10 25 -18 25 -15 0 -47 -12
-70 -27z"/>
<path d="M2386 3722 c-2 -4 2 -22 11 -40 21 -43 89 -76 138 -66 57 10 100 45
100 79 0 33 -24 45 -46 22 -54 -54 -96 -57 -156 -11 -35 26 -39 28 -47 16z"/>
<path d="M2880 2811 c-15 -38 -36 -56 -83 -71 -36 -11 -57 -34 -43 -47 3 -3
13 0 22 8 9 8 31 18 48 24 23 7 37 23 54 59 13 26 21 50 19 53 -2 2 -10 -10
-17 -26z"/>
<path d="M3742 2786 c-38 -83 -86 -321 -98 -478 -6 -84 -5 -98 8 -98 11 0 17
15 22 53 4 28 25 162 46 296 22 135 38 246 36 248 -1 2 -8 -8 -14 -21z"/>
<path d="M3496 2685 c-32 -100 -34 -343 -3 -332 14 4 28 182 25 307 l-3 85
-19 -60z"/>
<path d="M2394 1790 c-44 -22 -91 -66 -81 -76 3 -3 32 10 64 30 68 42 116 46
246 21 95 -18 123 -18 81 0 -34 15 -192 45 -239 45 -16 0 -48 -9 -71 -20z"/>
<path d="M2423 1695 c-18 -8 -33 -19 -33 -24 0 -6 -17 -19 -37 -30 -31 -16
-35 -21 -20 -26 17 -7 32 1 89 47 26 21 31 21 130 10 56 -6 104 -10 105 -8 2
2 -36 11 -84 20 -49 10 -95 19 -103 21 -8 2 -30 -2 -47 -10z"/>
<path d="M2900 1313 c0 -13 85 -177 126 -241 56 -88 107 -152 121 -152 30 0 9
41 -127 245 -82 122 -120 170 -120 148z"/>
</g>
</svg>
