<?xml version="1.0" encoding="UTF-8"?>
<!DOCTYPE svg PUBLIC "-//W3C//DTD SVG 1.1//EN" "http://www.w3.org/Graphics/SVG/1.1/DTD/svg11.dtd">
<svg xmlns="http://www.w3.org/2000/svg" version="1.1" width="600px" height="600px" style="shape-rendering:geometricPrecision; text-rendering:geometricPrecision; image-rendering:optimizeQuality; fill-rule:evenodd; clip-rule:evenodd" xmlns:xlink="http://www.w3.org/1999/xlink">
<g><path style="opacity:0.974" fill="#040404" d="M 446.5,529.5 C 443.323,503.435 439.156,477.435 434,451.5C 432.963,420.677 430.297,390.01 426,359.5C 420.368,330.717 406.868,306.55 385.5,287C 383.567,286.749 381.734,286.249 380,285.5C 378.609,275.049 373.442,267.049 364.5,261.5C 361.671,262.747 359.005,264.247 356.5,266C 357.289,268.365 358.456,270.532 360,272.5C 360.667,273.5 360.667,274.5 360,275.5C 352.597,288.904 342.43,299.737 329.5,308C 327.167,308.667 324.833,308.667 322.5,308C 304.399,297.233 290.399,282.566 280.5,264C 281.167,263.333 281.833,263.333 282.5,264C 283.211,265.255 284.044,266.421 285,267.5C 287.045,259.503 285.212,252.669 279.5,247C 269.413,245.173 259.413,245.84 249.5,249C 246.734,250.467 244.234,252.3 242,254.5C 239.797,259.744 236.964,264.578 233.5,269C 209.035,269.956 198.702,282.456 202.5,306.5C 203.723,307.614 205.056,307.781 206.5,307C 220.819,293.686 236.986,283.186 255,275.5C 258.184,276.841 261.351,278.341 264.5,280C 274.208,288.71 284.208,297.043 294.5,305C 300.12,307.726 305.62,310.559 311,313.5C 311.711,315.367 311.211,316.867 309.5,318C 307.5,318.667 305.5,318.667 303.5,318C 298.833,315.667 294.167,313.333 289.5,311C 277.351,300.352 265.351,289.518 253.5,278.5C 208.881,303.944 178.381,340.944 162,389.5C 159.197,408.403 157.197,427.403 156,446.5C 152.747,463.592 149.08,480.592 145,497.5C 144.283,508.855 144.449,520.189 145.5,531.5C 145.845,534.488 144.512,535.821 141.5,535.5C 138.601,535.769 137.101,534.435 137,531.5C 135.443,521.894 135.109,512.228 136,502.5C 139.524,484.068 143.524,465.735 148,447.5C 149.948,427.783 152.282,408.117 155,388.5C 157.381,376.736 161.715,365.736 168,355.5C 177.494,340.017 188.328,325.517 200.5,312C 197.898,311.065 196.398,309.232 196,306.5C 193.134,292.108 196.967,279.942 207.5,270C 213.967,266.207 220.967,264.541 228.5,265C 232.066,260.977 234.9,256.477 237,251.5C 241.469,245.893 247.302,242.727 254.5,242C 260.158,241.26 265.825,240.594 271.5,240C 270.015,237.523 268.181,235.356 266,233.5C 263.262,234.649 260.929,233.983 259,231.5C 256.239,233.017 254.406,232.184 253.5,229C 254.13,227.108 255.13,225.441 256.5,224C 248.34,221.378 244.006,215.711 243.5,207C 244.768,201.108 245.935,195.275 247,189.5C 244.541,185.422 242.708,185.755 241.5,190.5C 243.16,194.84 241.827,196.173 237.5,194.5C 234.175,187.808 235.842,182.808 242.5,179.5C 239.784,162.582 242.784,146.749 251.5,132C 250.541,129.88 250.374,127.713 251,125.5C 252.905,123.576 254.072,121.243 254.5,118.5C 255.688,117.16 257.188,116.493 259,116.5C 260.841,117.125 262.674,117.292 264.5,117C 286.935,101.08 311.935,94.0804 339.5,96C 352.242,101.247 365.408,105.08 379,107.5C 381.147,108.596 381.647,110.096 380.5,112C 383.563,113.066 385.063,115.233 385,118.5C 387.864,120.151 389.03,122.651 388.5,126C 388.455,130.302 387.122,134.135 384.5,137.5C 389.186,143.571 390.352,150.238 388,157.5C 384.882,160.07 383.715,163.404 384.5,167.5C 388.897,167.425 393.23,167.925 397.5,169C 398.578,169.674 399.245,170.674 399.5,172C 397.509,175.264 396.009,178.764 395,182.5C 395.396,191.608 392.729,199.608 387,206.5C 389.614,227.267 383.447,244.767 368.5,259C 379.063,264.233 384.896,272.733 386,284.5C 409.263,298.971 424.263,319.638 431,346.5C 433.642,356.709 435.642,367.042 437,377.5C 439.097,404.521 441.43,431.521 444,458.5C 448.69,479.642 452.19,500.976 454.5,522.5C 454.654,528.708 451.987,531.041 446.5,529.5 Z M 385.5,177.5 C 387.339,178.508 388.672,180.008 389.5,182C 386.969,181.872 385.635,180.372 385.5,177.5 Z"/></g>
<g><path style="opacity:1" fill="#f9f9f9" d="M 369.5,142.5 C 373.737,142.898 376.737,145.065 378.5,149C 379.4,155.466 379.733,161.966 379.5,168.5C 377.143,168.663 374.81,168.497 372.5,168C 367.975,164.824 362.975,163.491 357.5,164C 356.483,165.049 356.316,166.216 357,167.5C 359.398,168.856 361.898,170.023 364.5,171C 360.029,172.237 356.696,174.903 354.5,179C 348.805,180.656 344.138,179.323 340.5,175C 336.685,173.091 332.685,171.758 328.5,171C 331.673,167.168 330.839,165.001 326,164.5C 320.616,164.885 315.783,166.718 311.5,170C 306.167,170.333 300.833,170.667 295.5,171C 291.921,171.792 288.588,173.125 285.5,175C 282.518,175.498 279.518,175.665 276.5,175.5C 277.366,168.703 278.866,162.036 281,155.5C 281.833,154.667 282.667,153.833 283.5,153C 292.271,151.849 300.771,149.682 309,146.5C 309.5,146.833 310,147.167 310.5,147.5C 308.553,149.276 308.22,151.276 309.5,153.5C 312.773,154.585 316.106,154.752 319.5,154C 328.28,152.711 336.614,150.045 344.5,146C 349.833,145.667 355.167,145.333 360.5,145C 363.797,144.796 366.797,143.963 369.5,142.5 Z"/></g>
<g><path style="opacity:1" fill="#e9e9e9" d="M 327.5,179.5 C 331.577,179.017 333.91,180.684 334.5,184.5C 332.217,184.392 330.217,183.559 328.5,182C 327.748,181.329 327.414,180.496 327.5,179.5 Z"/></g>
<g><path style="opacity:1" fill="#fbfbfb" d="M 345.5,268.5 C 346.833,268.5 348.167,268.5 349.5,268.5C 349.263,269.791 349.596,270.791 350.5,271.5C 351.323,273.455 351.49,275.455 351,277.5C 344.208,286.293 336.708,294.459 328.5,302C 326.833,302.667 325.167,302.667 323.5,302C 309.976,292.484 297.643,281.484 286.5,269C 289.751,265.581 292.418,261.747 294.5,257.5C 288.505,248.674 281.338,241.007 273,234.5C 270.333,230.5 267.667,226.5 265,222.5C 264.506,220.866 264.34,219.199 264.5,217.5C 252.939,217.78 248.439,212.114 251,200.5C 250.943,195.995 252.443,192.161 255.5,189C 257.833,188.333 260.167,188.333 262.5,189C 265.797,191.295 268.797,193.962 271.5,197C 272.448,197.483 273.448,197.649 274.5,197.5C 275.354,191.879 275.687,186.212 275.5,180.5C 278.85,180.335 282.183,180.502 285.5,181C 287.026,182.887 289.026,183.887 291.5,184C 295.51,188.3 297.677,193.467 298,199.5C 305.695,214.509 317.195,218.343 332.5,211C 338.484,204.741 341.984,197.241 343,188.5C 346.272,183.273 350.772,181.606 356.5,183.5C 357.218,188.182 357.884,192.849 358.5,197.5C 356.195,197.692 353.862,198.026 351.5,198.5C 355.722,200.615 357.555,203.948 357,208.5C 355.883,210.124 354.383,211.124 352.5,211.5C 349.054,210.611 346.054,208.944 343.5,206.5C 341.525,207.275 340.691,208.609 341,210.5C 350.537,218.359 357.703,216.692 362.5,205.5C 367.546,210.595 373.546,212.261 380.5,210.5C 382.946,236.811 371.613,253.644 346.5,261C 341.5,261.667 336.5,261.667 331.5,261C 326.625,259.364 321.625,258.531 316.5,258.5C 317.143,261.988 319.143,264.488 322.5,266C 330.009,268.135 337.676,268.968 345.5,268.5 Z"/></g>
<g><path style="opacity:1" fill="#101010" d="M 254.5,197.5 C 259.857,197.844 264.524,199.844 268.5,203.5C 270.115,206.485 269.281,208.485 266,209.5C 264.037,208.375 262.204,207.041 260.5,205.5C 255.888,207.052 254.554,205.552 256.5,201C 255.177,200.184 254.511,199.017 254.5,197.5 Z"/></g>
<g><path style="opacity:1" fill="#0a0a0a" d="M 336.5,226.5 C 340.226,228.853 344.226,230.853 348.5,232.5C 352.882,231.809 356.549,229.809 359.5,226.5C 360.631,228.074 360.798,229.741 360,231.5C 355.071,237.118 348.905,238.951 341.5,237C 339.667,235.167 337.833,233.333 336,231.5C 335.36,229.735 335.527,228.068 336.5,226.5 Z"/></g>
<g><path style="opacity:0.999" fill="#fdfdfd" d="M 446.5,529.5 C 407.22,529.14 367.887,530.14 328.5,532.5C 329.845,505.847 330.845,479.181 331.5,452.5C 342.159,451.928 352.825,451.428 363.5,451C 365.107,449.951 365.773,448.451 365.5,446.5C 354.169,446.907 342.836,447.241 331.5,447.5C 331.667,421.498 331.5,395.498 331,369.5C 330.772,351.076 329.438,332.743 327,314.5C 323.484,359.089 321.984,403.756 322.5,448.5C 313.818,448.986 305.151,449.653 296.5,450.5C 288.986,450.796 281.653,451.462 274.5,452.5C 272.04,472.086 262.874,487.752 247,499.5C 246,501.5 245,503.5 244,505.5C 241.725,514.16 239.558,522.827 237.5,531.5C 237.628,533.955 238.628,535.955 240.5,537.5C 208.593,538.388 176.926,536.388 145.5,531.5C 144.449,520.189 144.283,508.855 145,497.5C 149.08,480.592 152.747,463.592 156,446.5C 157.197,427.403 159.197,408.403 162,389.5C 178.381,340.944 208.881,303.944 253.5,278.5C 265.351,289.518 277.351,300.352 289.5,311C 294.167,313.333 298.833,315.667 303.5,318C 305.5,318.667 307.5,318.667 309.5,318C 311.211,316.867 311.711,315.367 311,313.5C 305.62,310.559 300.12,307.726 294.5,305C 284.208,297.043 274.208,288.71 264.5,280C 261.351,278.341 258.184,276.841 255,275.5C 236.986,283.186 220.819,293.686 206.5,307C 205.056,307.781 203.723,307.614 202.5,306.5C 198.702,282.456 209.035,269.956 233.5,269C 236.964,264.578 239.797,259.744 242,254.5C 244.234,252.3 246.734,250.467 249.5,249C 259.413,245.84 269.413,245.173 279.5,247C 285.212,252.669 287.045,259.503 285,267.5C 284.044,266.421 283.211,265.255 282.5,264C 281.833,263.333 281.167,263.333 280.5,264C 290.399,282.566 304.399,297.233 322.5,308C 324.833,308.667 327.167,308.667 329.5,308C 342.43,299.737 352.597,288.904 360,275.5C 360.667,274.5 360.667,273.5 360,272.5C 358.456,270.532 357.289,268.365 356.5,266C 359.005,264.247 361.671,262.747 364.5,261.5C 373.442,267.049 378.609,275.049 380,285.5C 381.734,286.249 383.567,286.749 385.5,287C 406.868,306.55 420.368,330.717 426,359.5C 430.297,390.01 432.963,420.677 434,451.5C 439.156,477.435 443.323,503.435 446.5,529.5 Z"/></g>
<g><path style="opacity:1" fill="#989898" d="M 345.5,268.5 C 346.919,267.549 348.585,267.216 350.5,267.5C 350.5,268.833 350.5,270.167 350.5,271.5C 349.596,270.791 349.263,269.791 349.5,268.5C 348.167,268.5 346.833,268.5 345.5,268.5 Z"/></g>
<g><path style="opacity:0.997" fill="#0c0c0c" d="M 328.5,532.5 C 328.785,534.288 328.452,535.955 327.5,537.5C 325.783,536.332 325.116,534.665 325.5,532.5C 324.168,505.853 323.501,479.186 323.5,452.5C 312.167,452.5 300.833,452.5 289.5,452.5C 291.833,451.833 294.167,451.167 296.5,450.5C 305.151,449.653 313.818,448.986 322.5,448.5C 321.984,403.756 323.484,359.089 327,314.5C 329.438,332.743 330.772,351.076 331,369.5C 331.5,395.498 331.667,421.498 331.5,447.5C 342.836,447.241 354.169,446.907 365.5,446.5C 365.773,448.451 365.107,449.951 363.5,451C 352.825,451.428 342.159,451.928 331.5,452.5C 330.845,479.181 329.845,505.847 328.5,532.5 Z"/></g>
<g><path style="opacity:1" fill="#8e8e8e" d="M 410.5,347.5 C 409.833,345.167 409.167,342.833 408.5,340.5C 408.201,338.396 408.534,336.396 409.5,334.5C 410.492,338.783 410.826,343.116 410.5,347.5 Z"/></g>
<g><path style="opacity:1" fill="#0c0c0c" d="M 408.5,340.5 C 409.167,342.833 409.833,345.167 410.5,347.5C 408.242,397.419 413.742,446.419 427,494.5C 428.578,503.453 429.245,512.453 429,521.5C 426.333,526.833 423.667,526.833 421,521.5C 420.329,512.796 419.329,504.129 418,495.5C 413.617,473.917 409.617,452.25 406,430.5C 405.333,415.167 405.333,399.833 406,384.5C 407.105,369.846 407.939,355.179 408.5,340.5 Z"/></g>
<g><path style="opacity:1" fill="#0a0a0a" d="M 209.5,397.5 C 213.577,401.978 216.411,407.312 218,413.5C 219.906,421.042 220.739,428.709 220.5,436.5C 219.283,468.919 217.117,501.253 214,533.5C 211.667,536.167 209.333,536.167 207,533.5C 207.288,505.465 208.621,477.465 211,449.5C 212.044,432.085 211.544,414.752 209.5,397.5 Z"/></g>
<g><path style="opacity:1" fill="#555555" d="M 296.5,450.5 C 294.167,451.167 291.833,451.833 289.5,452.5C 284.833,452.5 280.167,452.5 275.5,452.5C 275.167,452.5 274.833,452.5 274.5,452.5C 281.653,451.462 288.986,450.796 296.5,450.5 Z"/></g>
<g><path style="opacity:1" fill="#0d0d0d" d="M 274.5,452.5 C 274.833,452.5 275.167,452.5 275.5,452.5C 277.568,465.899 274.735,478.233 267,489.5C 262,495.833 257,502.167 252,508.5C 250.078,516.108 248.412,523.774 247,531.5C 246.436,533.887 245.27,535.887 243.5,537.5C 242.5,537.5 241.5,537.5 240.5,537.5C 238.628,535.955 237.628,533.955 237.5,531.5C 239.558,522.827 241.725,514.16 244,505.5C 245,503.5 246,501.5 247,499.5C 262.874,487.752 272.04,472.086 274.5,452.5 Z"/></g>
<g><path style="opacity:0.995" fill="#fdfdfd" d="M 275.5,452.5 C 280.167,452.5 284.833,452.5 289.5,452.5C 300.833,452.5 312.167,452.5 323.5,452.5C 323.501,479.186 324.168,505.853 325.5,532.5C 298.201,534.461 270.868,536.128 243.5,537.5C 245.27,535.887 246.436,533.887 247,531.5C 248.412,523.774 250.078,516.108 252,508.5C 257,502.167 262,495.833 267,489.5C 274.735,478.233 277.568,465.899 275.5,452.5 Z"/></g>
<g><path style="opacity:1" fill="#0b0b0b" d="M 368.5,450.5 C 372.981,456.097 377.481,461.764 382,467.5C 389.041,472.874 395.041,479.207 400,486.5C 402.39,497.229 404.223,508.063 405.5,519C 405.624,521.59 404.958,523.923 403.5,526C 400.196,527.042 398.029,525.875 397,522.5C 396.56,510.643 394.893,498.976 392,487.5C 386.291,481.46 380.957,475.126 376,468.5C 372.653,462.812 370.153,456.812 368.5,450.5 Z"/></g>
</svg>
